<svg id="Layer_1" data-name="Layer 1" xmlns="http://www.w3.org/2000/svg" viewBox="0 0 3000 3000"><defs><style>.cls-1{fill:#1d1d1d;}.cls-2{fill:#fefefe;}.cls-3{fill:#6bcaf2;}.cls-4{fill:#2767b1;}.cls-5{fill:#fdfdfd;}</style></defs><path class="cls-1" d="M-540,2040V-960H2460V2040ZM461.6,61.79a25.72,25.72,0,0,0-3.1,3.81c-29.32,54.69-47.58,112.8-52.08,174.77A457.8,457.8,0,0,0,410.5,343c9,58.68,27.09,114.54,52.14,168.24,38.29,82.09,89,156.27,147.25,225.12,55.71,65.81,113.54,129.83,170.34,194.73,31.58,36.08,63.65,71.77,94.23,108.68,36.88,44.52,68.09,92.87,92.16,145.65a371.05,371.05,0,0,1,33,128.93c2.64,37.66-.36,75.14-6.55,112.4-2.07,12.43-3.2,25-4.75,37.53l-7.18,30c2,0,2.84.25,3.31,0,2.84-1.74,5.67-3.49,8.36-5.44,22.53-16.35,41.44-36.53,60.23-56.87,80.15-86.78,116.93-190.71,120.85-307.35,1.67-49.6-5.65-98.51-17.18-146.49-17.8-74.08-45.11-144.86-79.53-212.85-31.67-62.55-69.73-121.26-108.35-179.6Q849.59,405.58,730,225.83c-34.79-52.4-62.41-108.41-85.38-166.9C620-3.79,606.65-68.54,606.8-136a673.41,673.41,0,0,1,9.85-111.36c5.3-31.17,10.34-62.47,20.28-92.59,4.58-13.87,10.75-27.21,16.27-40.77,2.19-5.37,5.06-10.66.33-17.46-2.79,2.69-5.2,4.84-7.41,7.17-15.33,16.23-30.89,32.26-45.84,48.83-13.16,14.59-26.67,29-38.21,44.88C497-207.94,463.08-108,462.06,2.81Q461.79,32.3,461.6,61.79Zm526.55-515c-3.09,5.51-5.29,9.52-7.58,13.49Q877.25-260.6,773.74-81.61c-6.5,11.21-6.47,20.3,0,31.47Q876.27,126,978.08,302.52,1197.89,683.13,1417.32,1064c7.77,13.5,17,18.9,32.7,18.84,134-.59,268-.42,402-.5,4.66,0,9.33-.18,14-.48a68.42,68.42,0,0,0,7.33-1.39Q1430.61,313.41,988.15-453.21ZM624.21,1081.21c-87-150.74-173.42-300.37-260.48-451.16l-260.3,451.16Z" transform="translate(540 960)"/><path class="cls-2" d="M988.15-453.21q443.17,767.88,885.15,1533.65a68.42,68.42,0,0,1-7.33,1.39c-4.65.3-9.32.48-14,.48-134,.08-268-.09-402,.5-15.73.06-24.93-5.34-32.7-18.84Q1198.05,683,978.08,302.52,876.17,126,773.77-50.14c-6.5-11.17-6.53-20.26,0-31.47Q877.51-260.45,980.57-439.72C982.86-443.69,985.06-447.7,988.15-453.21Z" transform="translate(540 960)"/><path class="cls-3" d="M461.6,61.79q.22-29.49.46-59c1-110.8,34.92-210.75,100-300.11,11.54-15.84,25-30.29,38.21-44.88,15-16.57,30.51-32.6,45.84-48.83,2.21-2.33,4.62-4.48,7.41-7.17,4.73,6.8,1.86,12.09-.33,17.46-5.52,13.56-11.69,26.9-16.27,40.77-9.94,30.12-15,61.42-20.28,92.59A673.41,673.41,0,0,0,606.8-136C606.65-68.54,620-3.79,644.65,58.93c23,58.49,50.59,114.5,85.38,166.9Q849.45,405.68,968.78,585.6c38.62,58.34,76.68,117,108.35,179.6,34.42,68,61.73,138.77,79.53,212.85,11.53,48,18.85,96.89,17.18,146.49-3.92,116.64-40.7,220.57-120.85,307.35-18.79,20.34-37.7,40.52-60.23,56.87-2.69,2-5.52,3.7-8.36,5.44-.47.29-1.27,0-3.31,0l7.18-30c6.18-6.86,9.37-15.18,11.59-24,5.07-20,10.06-40,15.13-60,7.86-31,14.63-62.32,16.32-94.24,1.27-23.85,0-47.9-1.22-71.81-1.5-30.06-8.25-59.28-17-88-18.15-59.62-45.7-115-76.87-168.73-35.31-60.86-75.78-118.33-116.06-175.92-51.52-73.68-103.64-147-154.68-221s-94.44-152.23-131.15-234.2a915.62,915.62,0,0,1-46.78-130.57C475.39,151.83,467.59,107,461.6,61.79Z" transform="translate(540 960)"/><path class="cls-4" d="M461.6,61.79c6,45.21,13.79,90,26,134.08a915.62,915.62,0,0,0,46.78,130.57c36.71,82,80.17,160.27,131.15,234.2s103.16,147.3,154.68,221c40.28,57.59,80.75,115.06,116.06,175.92,31.17,53.71,58.72,109.11,76.87,168.73,8.74,28.7,15.49,57.92,17,88,1.19,23.91,2.49,48,1.22,71.81-1.69,31.92-8.46,63.24-16.32,94.24-5.07,20-10.06,40-15.13,60-2.22,8.77-5.41,17.09-11.59,24,1.55-12.51,2.68-25.1,4.75-37.53,6.19-37.26,9.19-74.74,6.55-112.4a371.05,371.05,0,0,0-33-128.93c-24.07-52.78-55.28-101.13-92.16-145.65-30.58-36.91-62.65-72.6-94.23-108.68-56.8-64.9-114.63-128.92-170.34-194.73-58.27-68.85-109-143-147.25-225.12C437.59,457.52,419.48,401.66,410.5,343a457.8,457.8,0,0,1-4.08-102.61c4.5-62,22.76-120.08,52.08-174.77A25.72,25.72,0,0,1,461.6,61.79Z" transform="translate(540 960)"/><path class="cls-5" d="M624.21,1081.21H103.43l260.3-451.16C450.79,780.84,537.17,930.47,624.21,1081.21Z" transform="translate(540 960)"/></svg>